<?xml version="1.0" encoding="utf-8"?>
<!-- Generator: Adobe Illustrator 23.1.1, SVG Export Plug-In . SVG Version: 6.00 Build 0)  -->
<svg version="1.1" id="图层_1" xmlns="http://www.w3.org/2000/svg" xmlns:xlink="http://www.w3.org/1999/xlink" x="0px" y="0px"
	 viewBox="0 0 16 17" style="enable-background:new 0 0 16 17;" xml:space="preserve">
<style type="text/css">
	.st0{fill:none;}
	.st1{fill-rule:evenodd;clip-rule:evenodd;fill:#FFFFFF;}
</style>
<title>miniicon/phone</title>
<desc>Created with Sketch.</desc>
<g id="官网_首页_浮动banner" transform="translate(-903.000000, -72.000000)">
	<g id="导航栏" transform="translate(0.000000, 40.000000)">
		<g id="编组-4">
			<g transform="translate(895.000000, 20.000000)">
				<g id="编组-5" transform="translate(0.000000, 2.000000)">
					<g id="编组-6">
						<g>
							<rect id="Rectangle-Copy-30" class="st0" width="31" height="36"/>
							<path id="Fill-1" class="st1" d="M22.5,21.3c-0.9-0.1-1.8-0.3-2.7-0.7c-0.4-0.2-0.8-0.1-1,0.2l-1.7,2c-2-1.3-3.7-3.3-4.8-5.6
								l1.7-2c0.3-0.3,0.3-0.8,0.2-1.2c-0.3-1-0.5-2-0.6-3.1c0-0.5-0.3-0.8-0.7-0.8H9.7c-0.6,0-1,0.6-1,1.2
								c0.5,8.3,6.3,15,13.4,15.6c0.6,0,1.1-0.5,1.1-1.1v-3.3C23.2,21.7,22.9,21.4,22.5,21.3"/>
						</g>
					</g>
				</g>
			</g>
		</g>
	</g>
</g>
</svg>
