<?xml version="1.0" encoding="UTF-8"?>
<svg width="16px" height="17px" viewBox="0 0 16 17" version="1.1" xmlns="http://www.w3.org/2000/svg" xmlns:xlink="http://www.w3.org/1999/xlink">
    <!-- Generator: Sketch 60 (88103) - https://sketch.com -->
    <title>miniicon/phone</title>
    <desc>Created with Sketch.</desc>
    <g id="首页优化&amp;加入侧浮动" stroke="none" stroke-width="1" fill="none" fill-rule="evenodd">
        <g id="官网_首页_浮动banner" transform="translate(-903.000000, -72.000000)">
            <g id="导航栏" transform="translate(0.000000, 40.000000)">
                <g id="编组-4">
                    <g transform="translate(895.000000, 20.000000)">
                        <g id="编组-5" transform="translate(0.000000, 2.000000)">
                            <g id="编组-6">
                                <g id="miniicon/phone">
                                    <rect id="Rectangle-Copy-30" x="0" y="0" width="31" height="36"></rect>
                                    <path d="M22.5174837,21.34575 C21.5768275,21.265875 20.6739525,21.0285 19.827265,20.658375 C19.463015,20.49975 19.0532337,20.581875 18.7781087,20.901375 L17.0702025,22.88475 C15.04164,21.565125 13.3627962,19.6155 12.2264525,17.260875 L13.9324212,15.278625 C14.2094837,14.958 14.2802025,14.481 14.14264,14.054625 C13.82489,13.073625 13.6204837,12.0285 13.5526712,10.938375 C13.5236087,10.485 13.2174837,10.125 12.8261087,10.125 L9.68735873,10.125 C9.11385873,10.125 8.67985873,10.699875 8.72151498,11.36475 C9.24270248,19.6965 14.97189,26.350875 22.1474212,26.955 C22.7189837,27.003375 23.214015,26.499375 23.214015,25.833375 L23.214015,22.510125 C23.214015,21.72825 22.9059525,21.378375 22.5174837,21.34575" id="Fill-1" fill="#3784FF" fill-rule="evenodd"></path>
                                </g>
                            </g>
                        </g>
                    </g>
                </g>
            </g>
        </g>
    </g>
</svg>