<?xml version="1.0" encoding="utf-8"?>
<svg version="1.1" id="miniicon_hamburger" xmlns="http://www.w3.org/2000/svg" xmlns:xlink="http://www.w3.org/1999/xlink" x="0px"
	 y="0px" viewBox="0 0 16 16" style="enable-background:new 0 0 16 16;" xml:space="preserve">
<style type="text/css">
	.st0{fill:#494D5A;}
</style>
<path id="Page_1" class="st0" d="M13.9,2.9l-0.7-0.7C13,2,12.7,2,12.5,2.2L8,6.6L3.6,2.2C3.4,2,3.1,2,2.9,2.2L2.2,2.9
	C2,3.1,2,3.4,2.2,3.6L6.6,8l-4.4,4.4c-0.2,0.2-0.2,0.5,0,0.7l0.7,0.7c0.2,0.2,0.5,0.2,0.7,0L8,9.4l4.4,4.4c0.2,0.2,0.5,0.2,0.7,0
	l0.7-0.7c0.2-0.2,0.2-0.5,0-0.7L9.4,8l4.4-4.4C14,3.4,14,3,13.9,2.9"/>
</svg>
