<?xml version="1.0" encoding="UTF-8"?>
<svg width="21px" height="17px" viewBox="0 0 21 17" version="1.1" xmlns="http://www.w3.org/2000/svg" xmlns:xlink="http://www.w3.org/1999/xlink">
    <!-- Generator: Sketch 60 (88103) - https://sketch.com -->
    <title>Page 1</title>
    <desc>Created with Sketch.</desc>
    <g id="首页" stroke="none" stroke-width="1" fill="none" fill-rule="evenodd">
        <g id="首页-(移动端)" transform="translate(-27.000000, -20.000000)">
            <rect fill="#FFFFFF" x="0" y="0" width="360" height="3409"></rect>
            <g id="移动端控件/导航栏">
                <rect id="矩形" fill="#FFFFFF" x="0" y="0" width="360" height="56"></rect>
                <g>
                    <rect id="Rectangle-8" x="0" y="0" width="360" height="56"></rect>
                    <g id="miniicon/hamburger" transform="translate(15.000000, 6.000000)">
                        <rect id="Rectangle-Copy-20" x="0" y="0" width="45" height="45"></rect>
                        <path d="M23.6674266,28.828125 C23.6674266,28.44 23.3524266,28.125 22.9643016,28.125 L13.359375,28.125 C12.97125,28.125 12.65625,28.44 12.65625,28.828125 L12.65625,30.234375 C12.65625,30.6225 12.97125,30.9375 13.359375,30.9375 L22.9643016,30.9375 C23.3524266,30.9375 23.6674266,30.6225 23.6674266,30.234375 L23.6674266,28.828125 Z M32.34375,23.203125 L32.34375,21.796875 C32.34375,21.40875 32.02875,21.09375 31.640625,21.09375 L13.359375,21.09375 C12.97125,21.09375 12.65625,21.40875 12.65625,21.796875 L12.65625,23.203125 C12.65625,23.59125 12.97125,23.90625 13.359375,23.90625 L31.640625,23.90625 C32.02875,23.90625 32.34375,23.59125 32.34375,23.203125 M31.640625,16.875 L13.359375,16.875 C12.97125,16.875 12.65625,16.56 12.65625,16.171875 L12.65625,14.765625 C12.65625,14.3775 12.97125,14.0625 13.359375,14.0625 L31.640625,14.0625 C32.02875,14.0625 32.34375,14.3775 32.34375,14.765625 L32.34375,16.171875 C32.34375,16.56 32.02875,16.875 31.640625,16.875" id="Page-1" fill="#758296"></path>
                    </g>
                </g>
            </g>
        </g>
    </g>
</svg>